<?xml version="1.0" encoding="utf-8"?>
<!-- Generator: Adobe Illustrator 21.1.0, SVG Export Plug-In . SVG Version: 6.00 Build 0)  -->
<svg version="1.1" id="Layer_1" xmlns="http://www.w3.org/2000/svg" xmlns:xlink="http://www.w3.org/1999/xlink" x="0px" y="0px"
	 viewBox="0 0 2000 1500" style="enable-background:new 0 0 2000 1500;" xml:space="preserve">
<style type="text/css">
	.st0{fill:#00000A;stroke:#FFFFFF;stroke-width:14;stroke-miterlimit:10;}
	.st1{fill:#FFFFFF;}
	.st2{fill:#4D3941;}
	.st3{fill:#354148;}
	.st4{fill:#00000A;}
</style>
<g>
	<path class="st0" d="M163.3,1169c0.5-2,1.7-3.1,2.6-4.3c21.6-29.4,41.8-59.7,59.9-91.4c24-42,44.3-85.7,59.7-131.6
		c9.1-27.1,16.2-54.8,21.8-82.9c3.1-15.5,5.5-31.2,7.3-46.9c3.2-28.2,4-56.5,2.8-84.8c-0.7-17.4-2.3-34.8-4.8-52.1
		c-5.1-35.8-13.3-71-24.2-105.5c-17-53.6-40.6-104.1-69.4-152.3c-16.2-27.2-33.9-53.4-52.7-79c-1-1.4-2-2.8-3.2-4.5
		c3.7-0.3,6.7,0.8,9.8,1.3c21,3.9,42,8.1,63.1,12c19,3.5,38.1,6.6,57.3,9.1c17.3,2.3,34.5,4.9,51.8,7.3c15.2,2.1,30.4,4.1,45.6,6.1
		c13.1,1.8,26.3,3.6,39.4,5.4c11.1,1.5,22.2,2.8,33.3,4.2c11.4,1.5,22.8,3,34.3,4.4c9.2,1.1,18.4,2.2,27.6,3.3
		c9.7,1.1,19.4,2.3,29.1,3.4c7,0.8,14,1.5,21,2.3c7.8,0.8,15.6,1.7,23.4,2.5c7.8,0.8,15.6,1.6,23.4,2.3c9.4,0.9,18.8,1.7,28.2,2.5
		c9.6,0.8,19.1,1.6,28.7,2.3c12.1,0.9,24.3,1.7,36.4,2.6c5.9,0.4,11.8,0.8,17.7,1.1c14.2,0.8,28.4,1.5,42.7,2.2
		c23.6,1.2,47.3,2.4,70.9,3.4c23.8,1,47.6,1.8,71.5,2.4c50.7,1.3,101.4,1.3,152.1,0.7c29.4-0.4,58.9-1.2,88.3-2.5
		c16.9-0.8,33.9-1.4,50.8-2.3c13.3-0.7,26.5-1.6,39.8-2.5c11.5-0.7,23-1.5,34.5-2.3c11-0.8,22-1.7,33-2.5c10-0.8,20.1-1.5,30.1-2.2
		c10.4-0.8,20.7-1.7,31.1-2.5c8.8-0.7,17.5-1.5,26.3-2.2c9.2-0.8,18.5-1.7,27.7-2.6c7.6-0.7,15.3-1.4,22.9-2.2
		c10.7-1.1,21.3-2.3,31.9-3.5c9.2-1,18.4-2.1,27.6-3.3c8.6-1,17.1-2.1,25.7-3.3c10.6-1.4,21.2-2.9,31.8-4.4
		c10.3-1.4,20.6-2.9,30.9-4.4c9.5-1.4,19-2.8,28.5-4.2c11.4-1.7,22.8-3.4,34.1-5.2c11.2-1.7,22.4-3.6,33.6-5.3
		c11.1-1.7,22.1-3.4,33.2-5.2c11-1.8,22.1-3.6,33.1-5.3c24.6-3.8,49.3-7.4,73.6-13.1c0.6-0.1,1.2-0.2,1.9-0.2
		c-0.5,1.9-1.8,3.2-2.8,4.6c-21,28.6-40.7,58.1-58.5,88.9c-22.5,39-41.7,79.5-56.8,121.9c-9.7,27.3-17.5,55.1-23.6,83.4
		c-3.4,15.8-6.2,31.7-8.3,47.7c-1.5,11.3-2.5,22.6-3.3,33.9c-1.5,21.4-1.6,42.8-0.7,64.3c0.6,13.4,1.8,26.8,3.5,40.1
		c2.1,17.3,5.1,34.5,8.7,51.5c10.3,48.8,26,95.8,46.8,141.1c18.8,40.9,41.2,79.8,66.3,117.1c8.5,12.6,17.3,25,26.2,37.3
		c0.7,1,1.8,1.8,1.7,3.3c-3,0.3-5.7-0.7-8.5-1.2c-19.6-3.6-39.2-7.5-58.9-11c-15.7-2.8-31.5-5.4-47.3-8c-12.8-2.1-25.5-4.3-38.3-6.3
		c-13.4-2.1-26.9-4.1-40.3-6.2c-14.2-2.1-28.4-4.3-42.7-6.3c-13-1.8-26-3.5-39-5.2c-11.4-1.5-22.8-3-34.2-4.4
		c-9.5-1.2-19.1-2.2-28.6-3.3c-10.3-1.2-20.7-2.3-31-3.4c-7.5-0.8-15-1.5-22.4-2.2c-9.4-0.9-18.8-1.8-28.2-2.6
		c-9.2-0.8-18.5-1.5-27.7-2.2c-11-0.9-22-1.7-33-2.5c-5.3-0.4-10.5-0.8-15.8-1.2c-18-1.3-36.1-2.5-54.1-3.7
		c-12.6-0.8-25.2-1.5-37.8-2.3c-13.9-0.8-27.8-1.7-41.7-2.5c-8.1-0.5-16.3-0.8-24.4-1.2c-11.2-0.5-22.4-1.1-33.6-1.6
		c-8.9-0.4-17.9-0.8-26.9-1.1c-14.7-0.5-29.4-0.8-44.1-1.3c-46.9-1.4-93.7-1.3-140.6-0.8c-21.6,0.2-43.2,0.9-64.8,1.5
		c-13.1,0.4-26.2,0.8-39.3,1.4c-16,0.7-32,1.6-47.9,2.4c-7.8,0.4-15.7,0.8-23.5,1.3c-12.1,0.8-24.3,1.6-36.4,2.5
		c-5.3,0.4-10.5,0.8-15.8,1.1c-19.3,1.4-38.6,2.7-57.9,4.2c-17.4,1.4-34.7,2.9-52.1,4.4c-15.3,1.3-30.6,2.7-45.9,4.2
		c-13.4,1.3-26.7,2.9-40.1,4.4c-11.9,1.4-23.8,2.7-35.7,4.2c-10.9,1.4-21.9,2.9-32.8,4.4c-12.5,1.7-25,3.4-37.5,5.2
		c-11.9,1.7-23.7,3.5-35.6,5.3c-13.6,2.1-27.2,4.1-40.8,6.2c-13.3,2.1-26.5,4.2-39.8,6.3c-11.1,1.7-22.1,3.4-33.2,5.2
		c-10.6,1.7-21.2,3.3-31.7,5c-9,1.4-18,2.9-27,4.3c-11.2,1.7-22.3,4.1-33.4,6.5C167.8,1168.1,165.6,1168.5,163.3,1169z"/>
	<path class="st1" d="M1595,623c0.6-0.8,1.1-1.2,1.4-1.8c19.2-32.3,39.1-64.2,57.7-96.8c8.3-14.6,16.5-29.2,24.8-43.8
		c11.1-19.4,22.9-38.5,35-57.3c2.1-3.2,4.1-6.5,6.2-9.7c2.7-4.3,5.7-8.5,9-12.4c8.3-10,19.1-15.3,31.7-17.3
		c8.6-1.3,17.2-1.2,25.8-0.1c0.3,0,0.6,0.2,0.7,0.5c0.1,0.2,0.1,0.7-0.1,0.8c-0.7,0.8-1.5,1.6-2.4,2.4c-10.8,10-20.7,20.9-29.7,32.6
		c-5.4,7-10,14.5-14.8,21.8c-19.9,30.9-38,62.9-54.8,95.7c-6.6,13-12.1,26.4-16.9,40.1c-6.7,19.3-12.8,38.9-17.7,58.7
		c-4.7,18.9-8.3,38.1-11.1,57.4c-0.5,3.3-0.7,6.7-0.9,10c-1.3,22.2-1.4,44.5-1,66.7c0.2,10.7,0.5,21.4,1.8,32.1
		c0.7,5.4,1.9,10.7,3,16c6.9,32.2,14,64.3,22.8,96.1c4.2,15.2,7.8,30.7,13.5,45.5c9.5,24.8,18.3,49.8,28.9,74.1
		c6.1,14.1,13.3,27.7,21.9,40.4c9.1,13.5,19.9,25.4,32.1,36.1c4.1,3.6,8.4,6.8,13,9.8c7.3,4.6,14.6,9.3,21.8,13.9
		c0.5,0.3,1,0.8,1.6,1.2c-1.7,4.2-4.5,7-8.8,8.2c-5.3,1.5-10.6,2.2-16.1,1.3c-7.6-1.2-15.2-2.4-22.4-5.1c-9.2-3.5-17.5-8.5-25-14.9
		c-8.8-7.5-16.5-16-23.6-25.1c-12.7-16.3-23.2-34-32.1-52.7c-15.5-32.6-28.7-66.2-41-100.2c-10.1-27.8-18.6-56.1-27-84.4
		c-2.8-9.5-5.9-18.9-8.9-28.3c-0.3-1-0.4-2.1-1.4-2.9c-1.4,2.6-1.5,5.6-2,8.4c-5.3,27.8-10.4,55.6-15.8,83.4
		c-4.9,25.1-10.7,50-16.5,74.9c-6,25.8-12.5,51.5-19.1,77.2c-0.4,1.5-0.9,3.1-1.4,4.6c-0.8,2.3-2.5,3.7-5,3.8
		c-1.4,0.1-2.9,0.2-4.3,0.3c-8,0.4-16,0.9-24,1.3c-2.1,0.1-4.2,0.1-6.2-0.5c-2.6-0.8-3.8-2.2-3.6-4.9c0.2-2.1,0.6-4.1,1.1-6.1
		c4.7-18.4,9.6-36.8,14.2-55.2c8-31.9,15.6-63.9,22.7-96.1c4.1-18.7,8.2-37.5,11.8-56.3c2.5-13.2,4.6-26.5,6.4-39.7
		c1.9-13.6,3.4-27.3,4.3-41c1-15,1.5-30,0.8-45.1c-0.5-11.3-0.9-22.7-1.6-34c-0.7-11.2-1.6-22.3-2.4-33.5
		c-0.4-5.7-0.8-11.5-1.2-17.2c-1.1-15.6-2-31.3-3.3-46.9c-1.3-15.9-2.8-31.9-4.4-47.8c-1.6-15.6-3.2-31.2-5.2-46.7
		c-1.7-13.8-3.7-27.6-5.7-41.3c-0.5-3.6-1.4-7.2-2.6-10.7c-0.9-2.6-2-5-3.6-7.3c-4.7-6.7-11.2-10.4-19.4-10.6
		c-2.2,0-4.5,0.2-6.7,0.3c-2.4,0.1-4.8,0.3-7.2,0.5c-0.6,0-1.3,0-1.5-0.8c-0.2-0.7,0.2-1.3,0.6-1.7c9-8,18.6-15.2,30.7-18
		c10.3-2.4,20-0.9,29.1,4.5c5.2,3.1,9,7.6,11.7,13c2.8,5.5,4.4,11.3,5.4,17.3c1.8,11,3.3,22.1,5,33.2c2.1,14.1,4.2,28.1,6.3,42.2
		c1.7,11.5,3.3,23.1,5.2,34.6c2.4,15.3,4.3,30.7,7.7,45.9C1593.2,617.9,1593.7,620.4,1595,623z"/>
	<path class="st1" d="M370.8,730.8c0.2,11.4-0.4,25.3-1.4,39.2c-1,14.8-2.5,29.6-4.3,44.4c-2.9,23.5-6.9,46.8-11.7,70
		c-8,38.4-18.4,76.1-31.3,113.1c-3.2,9.1-6.2,18.1-7.7,27.7c-1.1,6.8-1.4,13.7-0.5,20.6c1.2,8.8,5.8,15.1,14.1,18.5
		c5,2.1,10.4,3.1,15.7,4.1c17.3,3,34.4,1.7,51.4-2.1c20.1-4.4,39.3-11.2,57.4-20.9c5.2-2.8,10.2-5.9,15.2-9.2
		c18.6-12.1,31.3-28.9,39-49.6c5.7-15.1,10-30.7,13.4-46.5c5.5-25.6,11-51.2,16.1-76.9c3.2-16.1,5.9-32.4,8.1-48.7
		c1.8-13.3,3.8-26.6,5.4-39.9c1.6-13.5,3-27,4.2-40.6c1.6-17,3.1-34.1,4.4-51.1c0.9-12,1.6-23.9,2.3-35.9c1.4-23.6,1.9-47.3,2.9-71
		c0.8-17.3,1.8-34.5,3.8-51.7c1.4-11.6,4.1-23,9.3-33.6c1.9-3.9,4.1-7.6,6.6-11.1c7.6-10.4,17.7-17,30.3-19.5
		c6.5-1.3,13.1-0.8,19.4,1.6c0.7,0.3,1.5,0.6,2.1,1.1c1.6,1.2,1.7,3.2,0.2,4.5c-0.7,0.6-1.5,1.2-2.4,1.6
		c-14.7,7.5-22.3,20-25.4,35.8c-1.5,7.7-2.1,15.5-2.7,23.3c-1.2,16-2.2,31.9-3.3,47.9c-1.3,18.2-2.5,36.4-3.9,54.6
		c-1.2,16.7-2.5,33.5-3.8,50.2c-1.5,18.3-3.1,36.7-4.8,55c-1.4,15.1-3,30.2-4.7,45.3c-1.9,16.5-4.2,33-6.3,49.5
		c-1.7,13.3-3.7,26.6-6,39.8c-7,40.5-17,80.3-31.2,119c-15.5,42.1-44,72.1-84.7,90.6c-15.8,7.2-32.2,12.2-49.1,15.9
		c-21.3,4.7-42.9,7.1-64.7,6.9c-10-0.1-19.8-1.3-29.2-4.6c-6.1-2.1-11.8-5-16.9-8.9c-10.6-8.1-16.1-18.8-16.1-32.2
		c0-6.6,1.2-13,2.5-19.5c3.5-17.6,9.2-34.6,15.2-51.4c12-33.2,22.2-67,30-101.5c4.1-17.9,7.5-36,10.2-54.2c2.9-19.3,5-38.7,6.2-58.2
		c1.4-22.2,1.8-44.4,0.6-66.7c-0.6-11-1.3-22-2.4-33c-5.1-47.3-16.3-93.1-34.8-137c-10.6-25.3-23.2-49.4-38.9-72
		c-7.5-10.8-15.5-21.2-24.5-30.7c-0.5-0.6-1.1-1.2-1.4-1.9c-1-1.8,0.1-4.1,2.1-4.4c0.3-0.1,0.6-0.1,0.9-0.1c8.9,0.7,17.3,2.9,24.3,9
		c3.3,2.9,6.2,6,9,9.3c25.8,29.9,45.3,63.4,58.7,100.4c7.4,20.5,13.2,41.4,18.2,62.5c2.9,12.3,5.8,24.6,8,37
		c2,11.5,3.5,23.1,4.7,34.7C370.4,695.7,370.9,712,370.8,730.8z"/>
	<path class="st1" d="M682.5,978.9c2.9-7.9,5.7-15.9,8.8-23.8c6.2-15.8,13.8-30.9,23.1-45.2c5.9-9,12.5-17.4,20.4-24.7
		c7.4-6.8,15.6-12.1,25.3-15.1c7.5-2.3,15.1-2.5,22.7-0.7c8.8,2.2,15.6,7.2,20.5,14.8c3.7,5.7,5.8,12.1,6.9,18.8
		c1.1,7.3,1.2,14.6,0.5,22c-0.9,9.1-1.6,18.2-2.3,27.2c-0.8,9.2-1.7,18.5-2.4,27.7c-0.9,11.5-1.6,23-0.5,34.5
		c0.3,3.2,0.9,6.3,1.9,9.4c1.8,5.7,5.8,8.6,11.7,9c6.9,0.5,13.7-0.5,20.4-2.4c2.9-0.8,5.8-1.9,8.6-2.9c1-0.3,2-0.7,3-1.1
		c3.6,6.9,3.6,5.9-1.9,9.3c-13.1,7.9-27.1,13.5-42.1,16.7c-3.6,0.8-7.2,1.3-10.9,1.2c-7.3-0.1-12.5-3.3-15.7-9.9
		c-2.1-4.4-3.2-9-3.7-13.8c-1.5-13.9-1.3-27.8-0.4-41.7c0.7-10.2,1.5-20.4,2.4-30.6c0.7-8.3,1.5-16.6,2.3-24.8
		c0.5-5.4,0.4-10.9-0.4-16.3c-0.4-2.5-1.1-5-2.1-7.3c-4.7-10.5-14.8-13-22.5-11.5c-4.5,0.9-8.4,2.9-12.1,5.5
		c-5,3.5-9.4,7.7-13.4,12.3c-8,9.1-14.4,19.1-20.1,29.8c-12.6,23.6-21.1,48.6-26,74.8c-1.6,8.3-2.5,16.8-3.3,25.2
		c-0.3,3.1-0.3,2.7-3.1,3.1c-2.8,0.4-5.7,0.7-8.6,1c-5.1,0.6-10.2,1.1-15.3,1.7c-0.5,0.1-1,0.1-1.4,0.1c-1.1,0-1.7-0.6-1.6-1.9
		c0.3-4.3,0.7-8.6,1-12.9c0.5-6.7,1.1-13.4,1.5-20.1c0.8-15.2,1.6-30.4,2.3-45.5c1.1-20.8,1.8-41.6,2-62.4c0-2.7-0.1-5.4-0.2-8.2
		c0-1-0.1-1.9-0.3-2.9c-1.4-6.3-4.8-9.4-11.3-9.7c-2.4-0.1-4.8,0.1-7.2,0.4c-6.2,0.7-12.3,2.2-18.3,3.5c-2.3,0.5-2.7,0.4-3-1.6
		c-1.4-8-3.1-6.1,4.9-8.6c12.8-4.1,25.6-7.9,38.8-10.5c2.7-0.5,5.4-1,8-1.3c2.7-0.3,5.4-0.1,8.1,0.6c5.3,1.4,8.6,4.7,9.9,10
		c0.9,3.4,1.1,6.9,0.9,10.5c-0.4,5.9-0.7,11.8-1.1,17.7c-0.4,6.1-1,12.1-1.4,18.2c-1,14.2-2.3,28.4-3.8,42.5
		c-0.2,1.9-0.2,3.8-0.3,5.7c-1,2.4,0.3,4.8-0.2,7.1c0,0.6,0.9-0.1,0.3,0c-0.3,0.1-0.4,0-0.4-0.3
		C681.3,980.7,681.7,979.7,682.5,978.9z"/>
	<path class="st1" d="M970.4,905.8c0.7-4.9,1.3-10,2-15c2.2-17,4.6-33.9,7.8-50.7c1.1-5.9,4.7-9.2,10.6-10c4.7-0.6,9.3-0.3,13.7,1.5
		c1.7,0.7,1.9,1.1,1.6,2.9c-0.7,3.6-1.4,7.2-2.1,10.8c-2.7,13.8-4.8,27.7-6.5,41.7c-0.7,5.9-1.4,11.7-2.1,17.6
		c-0.2,1.9,0.1,2.2,2.1,2.2c1.6,0,3.2,0,4.8,0c18.2,0,36.5,0.4,54.7,1c1.7,0,3.7,0.7,5.1-0.3c1.5-1.1,0.8-3.3,1-5
		c1.9-13.8,3.6-27.6,5.6-41.3c1.4-9.5,3.2-18.9,4.9-28.3c1.2-6.4,4.9-9.7,11.4-10.4c4.5-0.5,8.9-0.3,13.2,1.5c2,0.8,2.2,1.1,1.7,3.2
		c-0.9,4.4-1.9,8.7-2.8,13.1c-3.2,15.5-5.7,31.1-7.6,46.8c-0.8,6.8-1.6,13.6-2.4,20.3c1.7,1.1,3.4,0.6,4.9,0.6
		c14.4,0,28.8,0,43.1-1.7c1-0.1,1.5,0.3,1.8,1.2c0.2,0.6,0.4,1.2,0.6,1.8c1.2,5.8-0.8,8.8-6.7,10c-3.1,0.6-6.3,0.9-9.5,0.8
		c-10.2-0.3-20.5-0.5-30.7-0.7c-1.4,0-3-0.6-4.2,0.3c-1.2,1-0.7,2.7-0.9,4c-0.5,4.6-1,9.2-1.4,13.8c-1.1,16.1-2.3,32.2-2.4,48.4
		c0,7.7,0,15.4,1.1,23c0.7,4.8,1.8,9.4,3.9,13.8c3.6,7.5,9.4,11.9,17.7,13c6.5,0.9,12.7-0.2,18.9-1.8c5.1-1.3,10-3.3,14.8-5.5
		c1.1-0.5,1.8-0.3,2.5,0.6c0.4,0.5,0.8,1,1.1,1.6c1.7,3.1,1.6,3.9-1.5,5.7c-10.8,6.3-22,11.7-34.1,14.9c-4.2,1.1-8.4,1.7-12.7,2.2
		c-4,0.4-8-0.1-11.9-1c-7.5-1.7-12.8-6.2-16.6-12.7c-2.9-5-4.6-10.5-5.8-16.2c-1.2-6-2-12-2.1-18.1c-0.2-13.6-0.1-27.2,0.7-40.8
		c0.6-11.2,1.5-22.3,2.4-33.5c0.3-3.5,0.7-7,1-10.5c0.1-1.9-0.2-2.1-2.2-2.2c-0.2,0-0.3,0-0.5,0c-20.5-0.5-40.9-1.2-61.4-1
		c-0.5,0-1,0-1.4,0c-1.1,0-1.8,0.4-1.9,1.6c-0.2,1.8-0.5,3.5-0.6,5.2c-0.8,9.4-1.5,18.8-2.2,28.2c-0.9,11.2-1.1,22.4-1.2,33.6
		c-0.1,7.8,0,15.7,1.2,23.5c0.7,4.4,1.7,8.8,3.6,12.9c3.6,7.7,9.4,12.2,17.9,13.4c6.5,0.9,12.7-0.1,18.9-1.8
		c4.5-1.2,8.8-2.9,13.1-4.7c1.9-0.8,2.4-0.6,3.5,1.1c0.2,0.3,0.3,0.5,0.5,0.8c1.7,3.1,1.5,4-1.5,5.7c-11.8,6.9-24.1,12.5-37.5,15.3
		c-5.8,1.2-11.6,1.7-17.6,0.7c-8.5-1.4-14.8-5.7-19.1-13.1c-2.9-5-4.7-10.5-5.8-16.2c-1.2-5.6-1.9-11.3-2-17.1
		c-0.4-14.7-0.1-29.4,0.7-44.1c0.6-10.9,1.5-21.7,2.4-32.5c0.3-3.5,0.7-7,1-10.5c0.2-2,0-2.1-2.1-2.1c-7.7,0-15.3,0.4-22.9,1.7
		c-0.2,0-0.3,0.1-0.5,0.1c-1.1,0.1-2.2,0.7-3.2-0.2c-0.6-0.5,0-2.8,1-4c1.3-1.5,2.9-2.5,4.6-3.4c3.7-1.9,7.7-3,11.8-3.8
		c2.8-0.5,5.7-0.8,8.5-1.2C967.4,906.6,968.9,906.7,970.4,905.8z"/>
	<path class="st1" d="M1375.1,1054.8c-13.7-0.2-27-2.4-39.7-7.7c-5.3-2.2-10.4-4.9-14.8-8.8c-4.2-3.6-7.4-7.9-8.7-13.5
		c-1.7-7.8,1.1-14.3,8.1-18.2c4.9-2.7,10.1-3.8,15.6-3.9c1.1,0,1.8,0.6,2,1.6c0.2,0.8,0.3,1.6,0.5,2.4c1.6,10,7,17.7,15.1,23.6
		c5.4,3.9,11.5,6.2,17.9,7.7c10.2,2.3,20.3,2,30.2-1.4c4.4-1.5,8.5-3.7,12-6.8c5.1-4.6,8.1-10.2,8.2-17.2c0.1-4.6-1.2-8.8-3.9-12.6
		c-2.3-3.1-5-5.8-8.1-8.1c-4.4-3.2-9.1-5.9-14.1-8.1c-9.2-4.2-18.3-8.3-27.5-12.4c-8.6-3.9-17-8.1-24.7-13.6
		c-4.5-3.1-8.5-6.7-12.1-10.8c-12.3-14.2-13.3-36.3-1-51.8c4.2-5.3,9.3-9.7,15.1-13.2c10.8-6.6,22.5-10.5,35-12.4
		c7.6-1.2,15.3-1.4,23-0.9c8.3,0.6,16.4,2.3,24.1,5.7c5.8,2.6,10.9,6,15,10.9c2.9,3.6,4.8,7.6,5.3,12.1c1.3,11.7-6.2,20.4-17.2,22
		c-4.8,0.7-9.6,0.3-14.3-0.9c-1.6-0.4-1.9-1.1-1.2-2.8c1.2-3,2.2-6,2.6-9.2c0.8-5.8-0.7-10.7-4.8-14.9c-3.1-3.1-6.8-5.3-11-6.5
		c-13.4-3.8-26.5-3.3-39.2,2.8c-4.2,2-7.9,4.9-10.9,8.5c-7.2,8.9-7.1,20,0.3,28.5c2.6,3,5.6,5.7,8.9,8c4.9,3.4,10,6.3,15.4,8.7
		c11.9,5.5,23.8,10.9,35.7,16.4c6.4,3,12.4,6.6,18,10.8c3.7,2.8,7,6.1,9.9,9.7c7,8.6,9,18.5,7.6,29.3c-1.4,11.1-6.8,20.2-14.9,27.7
		c-8.3,7.7-18.1,12.4-28.9,15.5C1394.2,1053.5,1384.7,1054.9,1375.1,1054.8z"/>
	<path class="st1" d="M1241.2,1008.7c-3.2,4.8-6.2,9.7-9.5,14.4c-5.4,7.6-11.8,14.3-19.3,19.9c-5.8,4.3-12,7.9-19.2,9.4
		c-8.3,1.8-16.5,1.4-24.4-2.2c-11.7-5.4-17.7-14.8-18.6-27.5c-0.6-9.5,2.2-18,7.9-25.5c5-6.6,11.5-11.5,18.8-15.3
		c8.5-4.5,17.6-7.5,27-9.6c11.3-2.5,22.7-3.9,34.2-4.1c1.4,0,2.9-0.1,4.3-0.1c0.9,0,1.5-0.5,1.6-1.4c1-9.7,2.4-19.4,1.3-29.2
		c-1.5-12.7-8.5-21.1-20.6-25c-8.9-2.9-18-2.5-26.9,0.3c-1.5,0.5-3,1.2-4.4,1.9c-5.5,3-8.3,7.8-8.8,14c-0.5,6.1,1.2,11.7,4.3,16.9
		c0.8,1.4,1.8,2.7,2.6,4c0.6,1,0.4,1.8-0.7,2.3c-6.2,2.6-12.6,3.4-19.2,1.3c-5.6-1.8-10.3-7.1-10.4-14.1c-0.1-4.6,1-8.9,3.5-12.8
		c3.1-5,7.2-8.9,12-12.3c5.6-4,11.8-7,18.3-9.4c12.1-4.5,24.5-7,37.5-6.3c4.5,0.2,8.9,1,13.2,2.3c12.8,3.9,20.3,12.7,23.3,25.6
		c1.2,5.2,1.5,10.4,1.4,15.7c-0.1,4.6-0.2,9.3-0.5,13.9c-0.6,8.9-1.4,17.8-2.1,26.8c-0.7,9.2-1.3,18.5-1.3,27.8
		c0,4.5,0.5,8.9,1.7,13.3c0.5,1.8,1.2,3.7,2.1,5.3c3.9,7.2,9.9,11.1,18.3,10.9c3.2-0.1,6.4-0.6,9.4-1.7c1.9-0.7,3.9-1.5,5.7-2.4
		c3.6-1.7,3-2.1,5.7,1.5c0.6,0.8,0.5,1.4-0.1,2.1c-0.1,0.1-0.2,0.2-0.4,0.3c-12.1,10.4-25.9,15.2-41.7,12.1
		c-12.1-2.4-19.6-10.1-23-21.9c-0.4-1.5-0.7-3.1-1.1-4.7c-0.9-4.6-0.1-9.3-0.4-14C1242.6,1010.1,1243.5,1008.3,1241.2,1008.7z"/>
	<path class="st1" d="M941.7,1035.2c-0.9,0.7-1.6,1.3-2.4,1.8c-12.2,7.5-25.3,12.9-39.5,15.4c-3.2,0.6-6.4,0.5-9.5,0
		c-3.4-0.5-5.9-2.3-7.7-5.2c-1.6-2.6-2.7-5.5-3.2-8.5c-0.7-3.8-1.5-7.5-1.8-11.4c-0.6-6.8-1.1-13.7-1.1-20.6
		c-0.2-24.6,0.4-49.3,1.6-73.9c0.4-7.5,0.8-15,1.2-22.5c0.3-6,3-9.1,8.8-10.2c5.6-1.1,11.1-0.5,16.5,1.5c2.6,1,2.7,1.2,2.4,3.8
		c-0.7,4.9-1.4,9.8-2,14.7c-0.9,7.3-1.8,14.6-2.4,21.9c-1.7,19.8-2.6,39.6-2,59.4c0.2,6.9,0.6,13.7,1.8,20.5
		c0.5,2.7,1.1,5.3,2.4,7.8c1.4,2.9,3.7,4.7,7,5.3c3.2,0.5,6.4,0.4,9.6,0c5.9-0.8,11.5-2.5,17-4.7c1-0.4,1.5-0.2,1.9,0.7
		C940.7,1032.4,941.2,1033.8,941.7,1035.2z"/>
	<path class="st1" d="M916,833.8c0,8.2-2.2,13.2-6.3,17.4c-4.5,4.6-10.1,6.1-16.2,4.5c-6.2-1.7-9.7-6.1-11.4-12.3
		c-2.4-8.9,2.6-20.5,13.9-23.1C905.3,818,916.1,824.4,916,833.8z"/>
	<path class="st2" d="M1241.2,1008.7c0-1,0.6-1.8,1.2-2.4c0.1-0.1,0.6,0,0.8,0.1c0.2,0.2,0.2,0.6,0.2,0.9
		c-0.7,5.9-0.3,11.9-0.2,17.8c-1-1-1-2.3-1-3.5c-0.1-3.5,0-6.9,0-10.4C1242.1,1010.2,1242.2,1009.2,1241.2,1008.7z"/>
	<path class="st3" d="M682.5,978.9c0.2,1-0.2,1.8-0.6,2.7c-0.2,0.5-0.1,1.3-1.3,1.4c-0.2-2.8-0.3-5.4,0.8-8.1
		c0.1,0.8,0.2,1.6,0.3,2.3C681.8,978,682,978.5,682.5,978.9z"/>
	<path class="st4" d="M1242.9,977.2c-0.8,7.5-3,14.5-6.2,21.1c-4.3,8.9-10,16.7-17.4,23.3c-4.5,4.1-9.6,7.4-15.3,9.6
		c-3.9,1.5-8,2.1-12.2,1.7c-4.8-0.5-8.3-2.9-10.9-6.9c-1.5-2.3-2.4-4.9-2.7-7.6c-1.7-12.5,2-22.7,12.6-30c6-4.1,12.8-6.5,19.8-8.1
		c10-2.4,20.2-3.3,30.4-3.4C1241.6,976.8,1242.2,977.1,1242.9,977.2z"/>
</g>
</svg>
